<?xml version="1.0" encoding="UTF-8" standalone="no"?>
<!-- Created with Inkscape (http://www.inkscape.org/) -->

<svg
   xmlns:dc="http://purl.org/dc/elements/1.1/"
   xmlns:cc="http://creativecommons.org/ns#"
   xmlns:rdf="http://www.w3.org/1999/02/22-rdf-syntax-ns#"
   xmlns:svg="http://www.w3.org/2000/svg"
   xmlns="http://www.w3.org/2000/svg"
   xmlns:sodipodi="http://sodipodi.sourceforge.net/DTD/sodipodi-0.dtd"
   xmlns:inkscape="http://www.inkscape.org/namespaces/inkscape"
   width="500mm"
   height="500mm"
   viewBox="0 0 1771.6537 1771.6534"
   id="svg5915"
   version="1.1"
   inkscape:version="0.91 r13725"
   sodipodi:docname="icon.svg"
   inkscape:export-filename="C:\Users\VirtualEvan\g6463.png"
   inkscape:export-xdpi="90"
   inkscape:export-ydpi="90">
  <defs
     id="defs5917" />
  <sodipodi:namedview
     id="base"
     pagecolor="#ffffff"
     bordercolor="#000000"
     borderopacity="0"
     inkscape:pageopacity="1"
     inkscape:pageshadow="2"
     inkscape:zoom="0.35"
     inkscape:cx="1409.9507"
     inkscape:cy="660.5078"
     inkscape:document-units="px"
     inkscape:current-layer="layer1"
     showgrid="false"
     inkscape:window-width="1920"
     inkscape:window-height="1017"
     inkscape:window-x="-8"
     inkscape:window-y="-8"
     inkscape:window-maximized="1"
     showborder="true"
     units="mm"
     width="500mm"
     borderlayer="false" />
  <metadata
     id="metadata5920">
    <rdf:RDF>
      <cc:Work
         rdf:about="">
        <dc:format>image/svg+xml</dc:format>
        <dc:type
           rdf:resource="http://purl.org/dc/dcmitype/StillImage" />
        <dc:title></dc:title>
      </cc:Work>
    </rdf:RDF>
  </metadata>
  <g
     inkscape:label="Layer 1"
     inkscape:groupmode="layer"
     id="layer1"
     transform="translate(0,719.29133)">
    <g
       transform="matrix(34.873238,0,0,34.873238,-223.06882,-886.72857)"
       id="g6463"
       inkscape:export-filename="C:\Users\VirtualEvan\g6463.png"
       inkscape:export-xdpi="90"
       inkscape:export-ydpi="90">
      <path
         sodipodi:nodetypes="csccccccccccccccccccccsssccsccsccssccsssssssssssssssssssssscccccccccccccccccccccsssscccccccccccccccscccc"
         style="color:#000000;font-style:normal;font-variant:normal;font-weight:normal;font-stretch:normal;font-size:medium;line-height:normal;font-family:sans-serif;text-indent:0;text-align:start;text-decoration:none;text-decoration-line:none;letter-spacing:normal;word-spacing:normal;text-transform:none;direction:ltr;block-progression:tb;writing-mode:lr-tb;baseline-shift:baseline;text-anchor:start;display:inline;overflow:visible;visibility:visible;fill:#000000;fill-opacity:1;fill-rule:nonzero;stroke:none;enable-background:accumulate"
         id="path6862"
         d="m 21.365723,9.4729416 c 2.906496,-2.7900229 7.125342,-4.10228 11.275361,-4.0434087 4.150017,0.058873 8.299826,1.4954047 11.015232,4.5070169 L 41.985172,11.444119 C 39.804777,9.0259285 36.254711,7.7338815 32.610099,7.6822177 28.965459,7.633261 25.292156,8.8307093 22.926931,11.10115 Z m 3.126918,3.2519984 c 2.094683,-2.013689 5.096825,-2.9471506 8.044815,-2.9096042 2.948032,0.035292 5.908535,1.0534952 7.867249,3.2260092 l -1.671118,1.507573 c -1.422472,-1.577718 -3.784884,-2.44989 -6.227116,-2.480897 -2.442342,-0.02538 -4.897462,0.785648 -6.452536,2.280621 z m 3.118109,3.251824 c 1.284998,-1.23551 3.078136,-1.773798 4.831349,-1.749324 1.75304,0.03439 3.535321,0.62163 4.745336,1.963541 l -1.675532,1.507485 c -0.675313,-0.748947 -1.853376,-1.200632 -3.100788,-1.218339 -1.247258,-0.02446 -2.495357,0.409821 -3.239157,1.124847 z M 18.486991,14.65529 c -0.403548,0.05982 -0.783806,0.276526 -0.657554,1.128502 l 1.858073,12.538702 c 0.279069,1.883223 0.102029,3.559123 0.304944,4.903769 l 0.478528,3.228382 2.439893,-0.361654 -0.478529,-3.228383 c -0.199451,-1.345591 -0.849711,-2.896092 -1.130175,-4.778233 l -4.64e-4,-0.0032 -1.858073,-12.5387 c -0.126248,-0.851948 -0.553091,-0.949024 -0.956638,-0.889208 z m -2.865343,23.148514 c -0.404939,0.03902 -0.745746,0.330803 -0.745746,0.815914 l 0,0.701179 34.268387,0 0,-0.701179 c 0,-0.485208 -0.339857,-0.788467 -0.745745,-0.815914 -11.387661,-0.77005 -22.44839,-0.995211 -32.776896,0 z m -2.275584,1.820408 c -0.971917,0 -1.733816,0.765441 -1.733816,1.749744 l 0,6.524129 c 0,0.984286 0.761899,1.749743 1.733816,1.749743 l 37.328063,0 c 0.971917,0 1.733818,-0.765457 1.733818,-1.749743 l 0,-6.524129 c 0,-0.984303 -0.761901,-1.749744 -1.733818,-1.749744 z m 7.051967,2.942223 c 1.792725,0 3.263656,0.408037 3.263656,2.200845 0,1.792808 -1.470931,2.067994 -3.263656,2.067994 -1.792726,0 -3.263656,-0.275186 -3.263656,-2.067994 0,-1.792808 1.47093,-2.200845 3.263656,-2.200845 z m 0,1.233274 c -0.910886,0 -1.631828,0.05667 -1.631828,0.967571 0,0.910904 0.720942,0.967573 1.631828,0.967573 0.910886,0 1.631827,-0.05667 1.631827,-0.967573 0,-0.910902 -0.720941,-0.967571 -1.631827,-0.967571 z m 9.927464,0.569017 0.164099,0 c 1.103442,-0.01632 1.103442,1.648147 0,1.631829 l -0.164099,0 c -1.103443,0.01632 -1.103443,-1.648147 0,-1.631829 z m 4.718147,0 0.29385,0 c 1.103443,-0.01632 1.103443,1.648147 0,1.631829 l -0.29385,0 c -1.103442,0.01632 -1.103442,-1.648147 0,-1.631829 z m 4.895484,0 0.29385,0 c 1.103442,-0.01632 1.103442,1.648147 0,1.631829 l -0.29385,0 c -1.103443,0.01632 -1.103443,-1.648147 0,-1.631829 z m 4.88912,0 0.160835,0 c 1.103442,-0.01632 1.103442,1.648147 0,1.631829 l -0.160835,0 c -1.103443,0.01632 -1.103443,-1.648147 0,-1.631829 z m -29.952344,5.582417 0,0.697998 c 0,0.485093 0.342459,0.762456 0.745746,0.815914 10.722583,1.421346 21.701781,1.046384 32.776896,0 0.405011,-0.03826 0.745745,-0.330723 0.745745,-0.815914 l 0,-0.697998 z m 3.270021,3.145739 0,0.685237 c -0.08159,0.500499 0.308905,0.953085 0.815913,0.946592 l 1.622201,0 c 0.508478,0.0065 0.899301,-0.448101 0.815914,-0.949774 l 0,-0.682055 -0.815914,0 -1.622201,0 z m 24.477419,0 0,0.666112 c -0.09465,0.506292 0.297809,0.972455 0.812813,0.965717 l 1.612572,0 c 0.455607,0.0065 0.828643,-0.360292 0.828643,-0.815915 l 0,-0.815914 -0.815915,0 -1.628563,0 z"
         inkscape:connector-curvature="0"
         inkscape:export-filename="C:\Users\VirtualEvan\path6862.png"
         inkscape:export-xdpi="90"
         inkscape:export-ydpi="90" />
    </g>
    <path
       sodipodi:nodetypes="cccsssccsccscc"
       style="color:#000000;font-style:normal;font-variant:normal;font-weight:normal;font-stretch:normal;font-size:medium;line-height:normal;font-family:sans-serif;text-indent:0;text-align:start;text-decoration:none;text-decoration-line:none;letter-spacing:normal;word-spacing:normal;text-transform:none;direction:ltr;block-progression:tb;writing-mode:lr-tb;baseline-shift:baseline;text-anchor:start;display:inline;overflow:visible;visibility:visible;fill:#000000;fill-opacity:1;fill-rule:nonzero;stroke:none;enable-background:accumulate"
       id="path6862-7"
       d="m 1295.0503,-552.39327 c 348.0154,1072.49246 174.0077,536.246211 0,0 z M 1395.441,-371.668 c 14.073,2.08612 27.3339,9.64336 22.931,39.35452 l -64.797,437.26514 c -9.732,65.67409 -3.5581,124.11815 -10.6344,171.0103 l -16.6878,112.58413 -85.087,-12.61204 16.6879,-112.58417 c 6.9555,-46.92511 29.6322,-100.9961 39.4129,-166.632448 l 0.016,-0.1116 64.797,-437.265072 c 4.4027,-29.71019 19.2881,-33.09554 33.361,-31.00956 z"
       inkscape:connector-curvature="0"
       inkscape:export-filename="C:\Users\VirtualEvan\path6862.png"
       inkscape:export-xdpi="90"
       inkscape:export-ydpi="90" />
  </g>
</svg>
